<?xml version="1.0" standalone="no"?>
<!DOCTYPE svg PUBLIC "-//W3C//DTD SVG 20010904//EN"
 "http://www.w3.org/TR/2001/REC-SVG-20010904/DTD/svg10.dtd">
<svg version="1.0" xmlns="http://www.w3.org/2000/svg"
 width="262.000000pt" height="262.000000pt" viewBox="0 0 262.000000 262.000000"
 preserveAspectRatio="xMidYMid meet">
<metadata>
Created by potrace 1.14, written by Peter Selinger 2001-2017
</metadata>
<g transform="translate(0.000000,262.000000) scale(0.100000,-0.100000)"
fill="#000000" stroke="none">
<path d="M1160 2550 l0 -69 -142 -3 -143 -3 -3 -72 -3 -73 -144 0 -145 0 0
-70 0 -70 -145 0 -145 0 0 -75 0 -75 -145 0 -145 0 0 -730 0 -730 145 0 145 0
0 -75 0 -75 145 0 145 0 0 -70 0 -70 145 0 144 0 3 -73 3 -72 143 -3 142 -3 0
-69 0 -70 150 0 150 0 0 70 0 69 143 3 142 3 3 73 3 72 144 0 145 0 0 70 0 70
145 0 145 0 0 75 0 75 145 0 145 0 0 730 0 730 -145 0 -145 0 0 75 0 75 -145
0 -145 0 0 70 0 70 -145 0 -144 0 -3 73 -3 72 -142 3 -143 3 0 69 0 70 -150 0
-150 0 0 -70z m300 -145 l0 -75 145 0 145 0 0 -70 0 -70 145 0 145 0 0 -75 0
-75 145 0 145 0 0 -75 0 -75 -145 0 -145 0 0 -70 0 -70 -145 0 -144 0 -3 -72
-3 -73 -142 -3 -143 -3 0 -69 0 -70 -150 0 -151 0 3 -72 3 -73 73 -3 72 -3 0
-584 0 -585 -75 0 -75 0 0 75 0 75 -145 0 -145 0 0 70 0 70 -145 0 -145 0 0
75 0 75 -145 0 -144 0 -3 73 -3 72 -72 3 -73 3 0 579 0 580 75 0 75 0 0 75 0
75 145 0 145 0 0 75 0 75 145 0 145 0 0 70 0 70 145 0 145 0 0 75 0 75 150 0
150 0 0 -75z"/>
<path d="M290 1820 l0 -70 145 0 145 0 0 -75 0 -75 145 0 145 0 0 -70 0 -70
145 0 145 0 0 70 0 70 -145 0 -145 0 0 75 0 75 -145 0 -145 0 0 70 0 70 -145
0 -145 0 0 -70z"/>
</g>
</svg>
